<svg xmlns="http://www.w3.org/2000/svg" width="16" height="16" viewBox="0 0 16 16"><rect width="16" height="16" transform="translate(16 16) rotate(180)" fill="#fff" opacity="0"/><rect width="10" height="1" rx="0.5" transform="translate(13 4) rotate(180)" fill="#fff"/><rect width="2" height="1" rx="0.5" transform="translate(13 3) rotate(90)" fill="#fff"/><rect width="2" height="1" rx="0.5" transform="translate(4 3) rotate(90)" fill="#fff"/><path d="M7.667,12.336a.667.667,0,0,1-.4-1.2l2.667-2a.667.667,0,0,1,.787,0l2.667,1.88a.667.667,0,1,1-.773,1.087L10.333,10.5,8.067,12.2a.667.667,0,0,1-.4.133Z" transform="translate(-2.333 -3.002)" fill="#fff"/><path d="M11.667,17.667A.667.667,0,0,1,11,17V11.667a.667.667,0,1,1,1.333,0V17A.667.667,0,0,1,11.667,17.667Z" transform="translate(-3.667 -3.667)" fill="#fff"/></svg>