<svg id="radio-waves" xmlns="http://www.w3.org/2000/svg" width="48.279" height="48.279" viewBox="0 0 48.279 48.279">
  <path id="Path_417" data-name="Path 417" d="M176,106.151a2.012,2.012,0,1,0,4.023,0V82.012a2.012,2.012,0,1,0-4.023,0Zm0,0" transform="translate(-153.872 -69.942)" fill="#3a3a3a"/>
  <path id="Path_418" data-name="Path 418" d="M2.012,96A2.012,2.012,0,0,0,0,98.012v20.116a2.012,2.012,0,1,0,4.023,0V98.012A2.012,2.012,0,0,0,2.012,96Zm0,0" transform="translate(0 -83.93)" fill="#3a3a3a"/>
  <path id="Path_419" data-name="Path 419" d="M124.023,130.1V114.012a2.012,2.012,0,0,0-4.023,0V130.1a2.012,2.012,0,1,0,4.023,0Zm0,0" transform="translate(-104.913 -97.919)" fill="#3a3a3a"/>
  <path id="Path_420" data-name="Path 420" d="M66.012,156.07a2.012,2.012,0,0,0,2.012-2.012v-8.046a2.012,2.012,0,1,0-4.023,0v8.046A2.012,2.012,0,0,0,66.012,156.07Zm0,0" transform="translate(-55.954 -125.895)" fill="#3a3a3a"/>
  <path id="Path_421" data-name="Path 421" d="M236.023,130.1V114.012a2.012,2.012,0,1,0-4.023,0V130.1a2.012,2.012,0,1,0,4.023,0Zm0,0" transform="translate(-202.832 -97.919)" fill="#3a3a3a"/>
  <path id="Path_422" data-name="Path 422" d="M354.012,96A2.012,2.012,0,0,0,352,98.012v20.116a2.012,2.012,0,1,0,4.023,0V98.012A2.012,2.012,0,0,0,354.012,96Zm0,0" transform="translate(-307.744 -83.93)" fill="#3a3a3a"/>
  <path id="Path_423" data-name="Path 423" d="M290.012,144A2.012,2.012,0,0,0,288,146.012v8.046a2.012,2.012,0,1,0,4.023,0v-8.046A2.012,2.012,0,0,0,290.012,144Zm0,0" transform="translate(-251.791 -125.895)" fill="#3a3a3a"/>
  <path id="Path_424" data-name="Path 424" d="M176,340.023a2.012,2.012,0,0,0,4.023,0v-2.012a2.012,2.012,0,0,0-4.023,0Zm0,0" transform="translate(-153.872 -293.756)" fill="#3a3a3a"/>
  <path id="Path_425" data-name="Path 425" d="M178.012,6.035a2.012,2.012,0,0,0,2.012-2.012V2.012a2.012,2.012,0,1,0-4.023,0V4.023A2.012,2.012,0,0,0,178.012,6.035Zm0,0" transform="translate(-153.872)" fill="#3a3a3a"/>
</svg>
